<mxfile host="app.diagrams.net" modified="2021-08-31T03:06:38.112Z" agent="5.0 (Macintosh; Intel Mac OS X 10_12_6) AppleWebKit/537.36 (KHTML, like Gecko) Chrome/92.0.4515.159 Safari/537.36" etag="gDH0Nz5f2TZYXyZeEITv" version="14.9.2" type="github">
  <diagram id="VZTdUykXYbI2ZBYuBRgF" name="第 1 页">
    <mxGraphModel dx="946" dy="563" grid="1" gridSize="10" guides="1" tooltips="1" connect="1" arrows="1" fold="1" page="1" pageScale="1" pageWidth="827" pageHeight="1169" math="0" shadow="0">
      <root>
        <mxCell id="0" />
        <mxCell id="1" parent="0" />
        <mxCell id="7mHwJ7CEPZ4vU7DKZEV_-163" style="edgeStyle=orthogonalEdgeStyle;curved=1;rounded=0;orthogonalLoop=1;jettySize=auto;html=1;entryX=0;entryY=0.5;entryDx=0;entryDy=0;entryPerimeter=0;exitX=0.5;exitY=0.5;exitDx=0;exitDy=0;exitPerimeter=0;" edge="1" parent="1" source="7mHwJ7CEPZ4vU7DKZEV_-15" target="7mHwJ7CEPZ4vU7DKZEV_-160">
          <mxGeometry relative="1" as="geometry">
            <Array as="points">
              <mxPoint x="85" y="80" />
            </Array>
          </mxGeometry>
        </mxCell>
        <mxCell id="7mHwJ7CEPZ4vU7DKZEV_-165" value="push,routingKey=1" style="edgeLabel;html=1;align=center;verticalAlign=middle;resizable=0;points=[];" vertex="1" connectable="0" parent="7mHwJ7CEPZ4vU7DKZEV_-163">
          <mxGeometry x="-0.3254" y="-2" relative="1" as="geometry">
            <mxPoint x="22" y="-2" as="offset" />
          </mxGeometry>
        </mxCell>
        <mxCell id="7mHwJ7CEPZ4vU7DKZEV_-15" value="Producer1" style="shape=umlActor;verticalLabelPosition=bottom;verticalAlign=top;html=1;outlineConnect=0;gradientColor=#7ea6e0;fillColor=#dae8fc;strokeColor=#6c8ebf;" vertex="1" parent="1">
          <mxGeometry x="70" y="70" width="30" height="60" as="geometry" />
        </mxCell>
        <mxCell id="7mHwJ7CEPZ4vU7DKZEV_-20" value="C&lt;span style=&quot;font-family: &amp;#34;.pingfang sc&amp;#34; ; font-size: 14px&quot;&gt;onsumer1&lt;/span&gt;" style="shape=umlActor;verticalLabelPosition=bottom;verticalAlign=top;html=1;outlineConnect=0;fillColor=#cce5ff;strokeColor=#36393d;" vertex="1" parent="1">
          <mxGeometry x="760" y="60" width="30" height="60" as="geometry" />
        </mxCell>
        <mxCell id="7mHwJ7CEPZ4vU7DKZEV_-21" value="C&lt;span style=&quot;font-family: &amp;#34;.pingfang sc&amp;#34; ; font-size: 14px&quot;&gt;onsumer2&lt;/span&gt;" style="shape=umlActor;verticalLabelPosition=bottom;verticalAlign=top;html=1;outlineConnect=0;fillColor=#ffff88;strokeColor=#36393d;" vertex="1" parent="1">
          <mxGeometry x="750" y="290" width="30" height="60" as="geometry" />
        </mxCell>
        <mxCell id="7mHwJ7CEPZ4vU7DKZEV_-166" style="edgeStyle=orthogonalEdgeStyle;curved=1;rounded=0;orthogonalLoop=1;jettySize=auto;html=1;entryX=0;entryY=0;entryDx=0;entryDy=52.5;entryPerimeter=0;" edge="1" parent="1" source="7mHwJ7CEPZ4vU7DKZEV_-157" target="7mHwJ7CEPZ4vU7DKZEV_-160">
          <mxGeometry relative="1" as="geometry" />
        </mxCell>
        <mxCell id="7mHwJ7CEPZ4vU7DKZEV_-167" value="push, routingKey=1" style="edgeLabel;html=1;align=center;verticalAlign=middle;resizable=0;points=[];" vertex="1" connectable="0" parent="7mHwJ7CEPZ4vU7DKZEV_-166">
          <mxGeometry x="0.1364" y="-4" relative="1" as="geometry">
            <mxPoint as="offset" />
          </mxGeometry>
        </mxCell>
        <mxCell id="7mHwJ7CEPZ4vU7DKZEV_-168" style="edgeStyle=orthogonalEdgeStyle;curved=1;rounded=0;orthogonalLoop=1;jettySize=auto;html=1;entryX=0;entryY=0;entryDx=0;entryDy=52.5;entryPerimeter=0;" edge="1" parent="1" source="7mHwJ7CEPZ4vU7DKZEV_-157" target="7mHwJ7CEPZ4vU7DKZEV_-161">
          <mxGeometry relative="1" as="geometry" />
        </mxCell>
        <mxCell id="7mHwJ7CEPZ4vU7DKZEV_-169" value="push, routingKey=2" style="edgeLabel;html=1;align=center;verticalAlign=middle;resizable=0;points=[];" vertex="1" connectable="0" parent="7mHwJ7CEPZ4vU7DKZEV_-168">
          <mxGeometry x="0.0741" y="-13" relative="1" as="geometry">
            <mxPoint x="47" y="-8" as="offset" />
          </mxGeometry>
        </mxCell>
        <mxCell id="7mHwJ7CEPZ4vU7DKZEV_-170" style="edgeStyle=orthogonalEdgeStyle;curved=1;rounded=0;orthogonalLoop=1;jettySize=auto;html=1;" edge="1" parent="1" source="7mHwJ7CEPZ4vU7DKZEV_-157" target="7mHwJ7CEPZ4vU7DKZEV_-162">
          <mxGeometry relative="1" as="geometry" />
        </mxCell>
        <mxCell id="7mHwJ7CEPZ4vU7DKZEV_-171" value="push, routingKey=3" style="edgeLabel;html=1;align=center;verticalAlign=middle;resizable=0;points=[];" vertex="1" connectable="0" parent="7mHwJ7CEPZ4vU7DKZEV_-170">
          <mxGeometry x="0.3111" y="11" relative="1" as="geometry">
            <mxPoint as="offset" />
          </mxGeometry>
        </mxCell>
        <mxCell id="7mHwJ7CEPZ4vU7DKZEV_-157" value="Producer2" style="shape=umlActor;verticalLabelPosition=bottom;verticalAlign=top;html=1;outlineConnect=0;gradientColor=#ffa500;fillColor=#ffcd28;strokeColor=#d79b00;" vertex="1" parent="1">
          <mxGeometry x="70" y="250" width="30" height="60" as="geometry" />
        </mxCell>
        <mxCell id="7mHwJ7CEPZ4vU7DKZEV_-172" style="edgeStyle=orthogonalEdgeStyle;curved=1;rounded=0;orthogonalLoop=1;jettySize=auto;html=1;entryX=0.5;entryY=0.5;entryDx=0;entryDy=0;entryPerimeter=0;" edge="1" parent="1" source="7mHwJ7CEPZ4vU7DKZEV_-160" target="7mHwJ7CEPZ4vU7DKZEV_-20">
          <mxGeometry relative="1" as="geometry" />
        </mxCell>
        <mxCell id="7mHwJ7CEPZ4vU7DKZEV_-173" value="pull" style="edgeLabel;html=1;align=center;verticalAlign=middle;resizable=0;points=[];" vertex="1" connectable="0" parent="7mHwJ7CEPZ4vU7DKZEV_-172">
          <mxGeometry x="0.0154" y="5" relative="1" as="geometry">
            <mxPoint as="offset" />
          </mxGeometry>
        </mxCell>
        <mxCell id="7mHwJ7CEPZ4vU7DKZEV_-160" value="DB1" style="shape=cylinder3;whiteSpace=wrap;html=1;boundedLbl=1;backgroundOutline=1;size=15;fillColor=#fad7ac;strokeColor=#b46504;" vertex="1" parent="1">
          <mxGeometry x="400" y="40" width="60" height="80" as="geometry" />
        </mxCell>
        <mxCell id="7mHwJ7CEPZ4vU7DKZEV_-174" style="edgeStyle=orthogonalEdgeStyle;curved=1;rounded=0;orthogonalLoop=1;jettySize=auto;html=1;entryX=0.5;entryY=0.5;entryDx=0;entryDy=0;entryPerimeter=0;" edge="1" parent="1" source="7mHwJ7CEPZ4vU7DKZEV_-161" target="7mHwJ7CEPZ4vU7DKZEV_-20">
          <mxGeometry relative="1" as="geometry">
            <Array as="points">
              <mxPoint x="680" y="210" />
              <mxPoint x="680" y="90" />
            </Array>
          </mxGeometry>
        </mxCell>
        <mxCell id="7mHwJ7CEPZ4vU7DKZEV_-175" value="pull" style="edgeLabel;html=1;align=center;verticalAlign=middle;resizable=0;points=[];" vertex="1" connectable="0" parent="7mHwJ7CEPZ4vU7DKZEV_-174">
          <mxGeometry x="-0.2782" y="10" relative="1" as="geometry">
            <mxPoint as="offset" />
          </mxGeometry>
        </mxCell>
        <mxCell id="7mHwJ7CEPZ4vU7DKZEV_-161" value="DB2" style="shape=cylinder3;whiteSpace=wrap;html=1;boundedLbl=1;backgroundOutline=1;size=15;fillColor=#fad9d5;strokeColor=#ae4132;" vertex="1" parent="1">
          <mxGeometry x="400" y="170" width="60" height="80" as="geometry" />
        </mxCell>
        <mxCell id="7mHwJ7CEPZ4vU7DKZEV_-176" style="edgeStyle=orthogonalEdgeStyle;curved=1;rounded=0;orthogonalLoop=1;jettySize=auto;html=1;entryX=0.5;entryY=0.5;entryDx=0;entryDy=0;entryPerimeter=0;" edge="1" parent="1" source="7mHwJ7CEPZ4vU7DKZEV_-162" target="7mHwJ7CEPZ4vU7DKZEV_-21">
          <mxGeometry relative="1" as="geometry" />
        </mxCell>
        <mxCell id="7mHwJ7CEPZ4vU7DKZEV_-177" value="pull" style="edgeLabel;html=1;align=center;verticalAlign=middle;resizable=0;points=[];" vertex="1" connectable="0" parent="7mHwJ7CEPZ4vU7DKZEV_-176">
          <mxGeometry x="-0.0708" y="2" relative="1" as="geometry">
            <mxPoint as="offset" />
          </mxGeometry>
        </mxCell>
        <mxCell id="7mHwJ7CEPZ4vU7DKZEV_-162" value="DB3" style="shape=cylinder3;whiteSpace=wrap;html=1;boundedLbl=1;backgroundOutline=1;size=15;fillColor=#b0e3e6;strokeColor=#0e8088;" vertex="1" parent="1">
          <mxGeometry x="400" y="300" width="60" height="80" as="geometry" />
        </mxCell>
      </root>
    </mxGraphModel>
  </diagram>
</mxfile>
